<svg width="20" height="20" viewBox="0 0 20 20" fill="none" xmlns="http://www.w3.org/2000/svg">
<path fill-rule="evenodd" clip-rule="evenodd" d="M5.83464 1.45801C6.17981 1.45801 6.45964 1.73783 6.45964 2.08301V2.71861C7.01133 2.708 7.61914 2.708 8.28762 2.70801H11.715C12.3835 2.708 12.9913 2.708 13.543 2.71861V2.08301C13.543 1.73783 13.8228 1.45801 14.168 1.45801C14.5131 1.45801 14.793 1.73783 14.793 2.08301V2.77225C15.0096 2.78876 15.2147 2.80952 15.4088 2.83562C16.3858 2.96698 17.1766 3.24374 17.8003 3.86738C18.4239 4.49101 18.7007 5.2818 18.832 6.25882C18.874 6.57106 18.9022 6.91183 18.9211 7.28307C18.946 7.35056 18.9596 7.42352 18.9596 7.49967C18.9596 7.55744 18.9518 7.61338 18.9371 7.66648C18.9596 8.33479 18.9596 9.09363 18.9596 9.95267V11.7134C18.9596 13.2448 18.9597 14.4578 18.832 15.4072C18.7007 16.3842 18.4239 17.175 17.8003 17.7986C17.1766 18.4223 16.3858 18.699 15.4088 18.8304C14.4595 18.958 13.2464 18.958 11.715 18.958H8.28763C6.75616 18.958 5.54313 18.958 4.59378 18.8304C3.61676 18.699 2.82597 18.4223 2.20234 17.7986C1.5787 17.175 1.30194 16.3842 1.17058 15.4072C1.04295 14.4578 1.04296 13.2448 1.04297 11.7134V9.95266C1.04296 9.09363 1.04296 8.33479 1.06548 7.66648C1.05081 7.61338 1.04297 7.55744 1.04297 7.49967C1.04297 7.42352 1.05659 7.35055 1.08153 7.28306C1.10043 6.91182 1.1286 6.57106 1.17058 6.25882C1.30194 5.2818 1.5787 4.49101 2.20234 3.86738C2.82597 3.24374 3.61677 2.96698 4.59378 2.83562C4.78789 2.80952 4.99302 2.78876 5.20964 2.77225V2.08301C5.20964 1.73783 5.48946 1.45801 5.83464 1.45801ZM2.30387 8.12467C2.29324 8.66861 2.29297 9.288 2.29297 9.99967V11.6663C2.29297 13.2554 2.2943 14.3842 2.40943 15.2406C2.52216 16.079 2.73355 16.5621 3.08622 16.9148C3.4389 17.2674 3.92194 17.4788 4.76034 17.5915C5.61673 17.7067 6.74562 17.708 8.33464 17.708H11.668C13.257 17.708 14.3859 17.7067 15.2423 17.5915C16.0807 17.4788 16.5637 17.2674 16.9164 16.9148C17.2691 16.5621 17.4804 16.079 17.5932 15.2406C17.7083 14.3842 17.7096 13.2554 17.7096 11.6663V9.99967C17.7096 9.288 17.7094 8.66861 17.6987 8.12467H2.30387ZM17.6416 6.87467H2.36104C2.37438 6.71685 2.39035 6.56737 2.40943 6.42538C2.52216 5.58697 2.73355 5.10394 3.08622 4.75126C3.4389 4.39859 3.92194 4.18719 4.76034 4.07447C5.61673 3.95934 6.74562 3.95801 8.33464 3.95801H11.668C13.257 3.95801 14.3859 3.95934 15.2423 4.07447C16.0807 4.18719 16.5637 4.39859 16.9164 4.75126C17.2691 5.10394 17.4804 5.58697 17.5932 6.42538C17.6123 6.56737 17.6282 6.71685 17.6416 6.87467Z" fill="#1C274C"/>
</svg>
