<svg width="24" height="25" viewBox="0 0 24 25" fill="none" xmlns="http://www.w3.org/2000/svg">
<path d="M12 6.74826C12.4142 6.74826 12.75 7.08405 12.75 7.49826V12.6876L14.4697 10.9679C14.7626 10.675 15.2374 10.675 15.5303 10.9679C15.8232 11.2608 15.8232 11.7357 15.5303 12.0286L12.5303 15.0286C12.3897 15.1692 12.1989 15.2483 12 15.2483C11.8011 15.2483 11.6103 15.1692 11.4697 15.0286L8.46967 12.0286C8.17678 11.7357 8.17678 11.2608 8.46967 10.9679C8.76256 10.675 9.23744 10.675 9.53033 10.9679L11.25 12.6876V7.49826C11.25 7.08405 11.5858 6.74826 12 6.74826Z" fill="white"/>
<path d="M7.25 17.4983C7.25 17.084 7.58579 16.7483 8 16.7483H16C16.4142 16.7483 16.75 17.084 16.75 17.4983C16.75 17.9125 16.4142 18.2483 16 18.2483H8C7.58579 18.2483 7.25 17.9125 7.25 17.4983Z" fill="white"/>
<path fill-rule="evenodd" clip-rule="evenodd" d="M11.9426 1.74826C9.63423 1.74825 7.82519 1.74824 6.4137 1.93801C4.96897 2.13225 3.82895 2.53759 2.93414 3.4324C2.03933 4.32721 1.63399 5.46723 1.43975 6.91197C1.24998 8.32345 1.24999 10.1325 1.25 12.4409V12.5556C1.24999 14.864 1.24998 16.6731 1.43975 18.0846C1.63399 19.5293 2.03933 20.6693 2.93414 21.5641C3.82895 22.4589 4.96897 22.8643 6.4137 23.0585C7.82519 23.2483 9.63423 23.2483 11.9426 23.2483H12.0574C14.3658 23.2483 16.1748 23.2483 17.5863 23.0585C19.031 22.8643 20.1711 22.4589 21.0659 21.5641C21.9607 20.6693 22.366 19.5293 22.5603 18.0846C22.75 16.6731 22.75 14.864 22.75 12.5556V12.4409C22.75 10.1325 22.75 8.32345 22.5603 6.91197C22.366 5.46723 21.9607 4.32721 21.0659 3.4324C20.1711 2.53759 19.031 2.13225 17.5863 1.93801C16.1748 1.74824 14.3658 1.74825 12.0574 1.74826H11.9426ZM3.9948 4.49306C4.56445 3.9234 5.33517 3.59651 6.61358 3.42463C7.91356 3.24985 9.62177 3.24826 12 3.24826C14.3782 3.24826 16.0864 3.24985 17.3864 3.42463C18.6648 3.59651 19.4355 3.9234 20.0052 4.49306C20.5749 5.06271 20.9018 5.83343 21.0736 7.11184C21.2484 8.41182 21.25 10.12 21.25 12.4983C21.25 14.8765 21.2484 16.5847 21.0736 17.8847C20.9018 19.1631 20.5749 19.9338 20.0052 20.5035C19.4355 21.0731 18.6648 21.4 17.3864 21.5719C16.0864 21.7467 14.3782 21.7483 12 21.7483C9.62177 21.7483 7.91356 21.7467 6.61358 21.5719C5.33517 21.4 4.56445 21.0731 3.9948 20.5035C3.42514 19.9338 3.09825 19.1631 2.92637 17.8847C2.75159 16.5847 2.75 14.8765 2.75 12.4983C2.75 10.12 2.75159 8.41182 2.92637 7.11184C3.09825 5.83343 3.42514 5.06271 3.9948 4.49306Z" fill="white"/>
</svg>
