<svg width="20" height="20" viewBox="0 0 20 20" fill="none" xmlns="http://www.w3.org/2000/svg">
<path fill-rule="evenodd" clip-rule="evenodd" d="M8.88437 2.70898L11.1622 2.70898C12.0633 2.70898 12.7852 2.70897 13.377 2.76752C13.9898 2.82815 14.5102 2.95491 15.0002 3.23569C15.4891 3.51587 15.8664 3.90285 16.2383 4.40452C16.5987 4.89068 16.9804 5.5221 17.4588 6.31352L18.0589 7.30623C18.4585 7.9672 18.7827 8.50357 19.0033 8.97008C19.2332 9.45626 19.3737 9.91193 19.3737 10.4173C19.3737 10.9227 19.2332 11.3784 19.0033 11.8646C18.7827 12.3311 18.4585 12.8674 18.0589 13.5284L17.4588 14.5211C16.9804 15.3125 16.5987 15.944 16.2383 16.4301C15.8664 16.9318 15.4891 17.3188 15.0002 17.5989C14.5102 17.8797 13.9898 18.0065 13.377 18.0671C12.7852 18.1257 12.0633 18.1257 11.1622 18.1257H8.88435C7.31077 18.1257 6.06401 18.1257 5.08821 17.99C4.08223 17.8502 3.27226 17.5556 2.63607 16.8978C2.0027 16.243 1.7216 15.4141 1.58766 14.3841C1.45701 13.3794 1.45702 12.0939 1.45703 10.4632V10.3715C1.45702 8.74078 1.45701 7.45529 1.58766 6.45055C1.7216 5.42052 2.0027 4.59166 2.63607 3.93681C3.27226 3.27903 4.08223 2.98444 5.08821 2.8446C6.06401 2.70896 7.31078 2.70897 8.88437 2.70898ZM5.26032 4.0827C4.40072 4.20219 3.90167 4.42627 3.53457 4.80582C3.16465 5.1883 2.94411 5.71288 2.82722 6.61174C2.70827 7.5265 2.70703 8.73066 2.70703 10.4173C2.70703 12.104 2.70827 13.3081 2.82722 14.2229C2.94411 15.1218 3.16465 15.6463 3.53457 16.0288C3.90167 16.4084 4.40072 16.6324 5.26032 16.7519C6.1401 16.8742 7.29988 16.8757 8.9329 16.8757H11.1303C12.0706 16.8757 12.7308 16.8749 13.2539 16.8232C13.7629 16.7728 14.0939 16.6776 14.3787 16.5144C14.6645 16.3506 14.9205 16.1087 15.2342 15.6857C15.5553 15.2525 15.907 14.6719 16.405 13.8482L16.9723 12.9096C17.3927 12.2142 17.6832 11.7322 17.8733 11.3301C18.0572 10.9413 18.1237 10.6737 18.1237 10.4173C18.1237 10.1609 18.0572 9.89337 17.8733 9.50449C17.6832 9.10248 17.3927 8.62045 16.9723 7.92502L16.405 6.98648C15.907 6.16275 15.5553 5.58216 15.2342 5.14897C14.9205 4.7259 14.6645 4.48403 14.3787 4.32023C14.0939 4.15703 13.7629 4.06181 13.2539 4.01144C12.7308 3.95969 12.0706 3.95898 11.1303 3.95898H8.9329C7.29988 3.95898 6.1401 3.9604 5.26032 4.0827ZM6.2487 6.03825C6.59388 6.03825 6.8737 6.31807 6.8737 6.66325V14.1673C6.8737 14.5125 6.59388 14.7923 6.2487 14.7923C5.90352 14.7923 5.6237 14.5125 5.6237 14.1673V6.66325C5.6237 6.31807 5.90352 6.03825 6.2487 6.03825Z" fill="#1C274C"/>
</svg>
