<svg width="20" height="21" viewBox="0 0 20 21" fill="none" xmlns="http://www.w3.org/2000/svg">
<path fill-rule="evenodd" clip-rule="evenodd" d="M2.70898 8.53022C2.70898 4.4477 5.96316 1.11914 10.0007 1.11914C14.0381 1.11914 17.2923 4.4477 17.2923 8.53022C17.2923 10.5011 16.7306 12.6174 15.7377 14.4457C14.746 16.2717 13.297 17.8585 11.4844 18.7057C10.5428 19.1458 9.45851 19.1458 8.51689 18.7057C6.70429 17.8585 5.25533 16.2717 4.26361 14.4457C3.27067 12.6174 2.70898 10.5011 2.70898 8.53022ZM10.0007 2.36914C6.67435 2.36914 3.95898 5.11704 3.95898 8.53022C3.95898 10.2778 4.46118 12.1903 5.36207 13.8491C6.26418 15.5102 7.539 16.8688 9.04619 17.5733C9.65236 17.8566 10.3489 17.8566 10.9551 17.5733C12.4623 16.8688 13.7371 15.5102 14.6392 13.8491C15.5401 12.1903 16.0423 10.2778 16.0423 8.53022C16.0423 5.11704 13.327 2.36914 10.0007 2.36914ZM10.0007 6.53581C8.96512 6.53581 8.12565 7.37527 8.12565 8.41081C8.12565 9.44634 8.96512 10.2858 10.0007 10.2858C11.0362 10.2858 11.8757 9.44634 11.8757 8.41081C11.8757 7.37527 11.0362 6.53581 10.0007 6.53581ZM6.87565 8.41081C6.87565 6.68492 8.27476 5.28581 10.0007 5.28581C11.7265 5.28581 13.1257 6.68492 13.1257 8.41081C13.1257 10.1367 11.7265 11.5358 10.0007 11.5358C8.27476 11.5358 6.87565 10.1367 6.87565 8.41081Z" fill="#DD720D"/>
</svg>
