<svg width="87" height="22" viewBox="0 0 87 22" fill="none" xmlns="http://www.w3.org/2000/svg">
<path fill-rule="evenodd" clip-rule="evenodd" d="M7.58523 15.0454C6.91465 15.0454 6.27154 14.7791 5.79737 14.3049C5.3232 13.8307 5.05682 13.1876 5.05682 12.517V0.886353H0V12.517C0 16.7061 3.39616 20.1023 7.58523 20.1023H13.1477V15.0454H7.58523ZM22.7557 5.94317C22.158 5.94317 21.5662 6.06089 21.014 6.28961C20.4619 6.51832 19.9602 6.85356 19.5375 7.27617C19.1149 7.69878 18.7797 8.20049 18.551 8.75266C18.3223 9.30483 18.2045 9.89664 18.2045 10.4943C18.2045 11.092 18.3223 11.6838 18.551 12.236C18.7797 12.7881 19.1149 13.2898 19.5375 13.7124C19.9602 14.1351 20.4619 14.4703 21.014 14.699C21.5662 14.9277 22.158 15.0454 22.7557 15.0454C23.9627 15.0454 25.1203 14.5659 25.9738 13.7124C26.8273 12.8589 27.3068 11.7013 27.3068 10.4943C27.3068 9.28727 26.8273 8.12967 25.9738 7.27617C25.1203 6.42266 23.9627 5.94317 22.7557 5.94317ZM13.1477 10.4943C13.1477 5.18819 17.4496 0.886353 22.7557 0.886353C28.0618 0.886353 32.3636 5.18819 32.3636 10.4943C32.3636 15.8004 28.0618 20.1023 22.7557 20.1023C17.4496 20.1023 13.1477 15.8004 13.1477 10.4943ZM77.3693 5.94317C76.1623 5.94317 75.0047 6.42266 74.1512 7.27617C73.2977 8.12967 72.8182 9.28727 72.8182 10.4943C72.8182 11.7013 73.2977 12.8589 74.1512 13.7124C75.0047 14.5659 76.1623 15.0454 77.3693 15.0454C78.5764 15.0454 79.734 14.5659 80.5875 13.7124C81.441 12.8589 81.9205 11.7013 81.9205 10.4943C81.9205 9.28727 81.441 8.12967 80.5875 7.27617C79.734 6.42266 78.5764 5.94317 77.3693 5.94317ZM67.7614 10.4943C67.7614 5.18819 72.0632 0.886353 77.3693 0.886353C82.6754 0.886353 86.9773 5.18819 86.9773 10.4943C86.9773 15.8004 82.6754 20.1023 77.3693 20.1023C72.0632 20.1023 67.7614 15.8004 67.7614 10.4943ZM42.983 0.886353C37.6768 0.886353 33.375 5.18819 33.375 10.4943C33.375 15.8004 37.6768 20.1023 42.983 20.1023H57.142C58.1377 20.1023 59.098 19.9506 60.0012 19.6694L62.7045 21.1136L65.6213 15.6502C66.3623 14.2594 66.7499 12.7078 66.75 11.132V10.4943C66.75 5.18819 62.4482 0.886353 57.142 0.886353H42.983ZM61.6932 10.4943C61.6932 9.28727 61.2137 8.12967 60.3602 7.27617C59.5067 6.42266 58.3491 5.94317 57.142 5.94317H42.983C42.3853 5.94317 41.7935 6.06089 41.2413 6.28961C40.6891 6.51832 40.1874 6.85356 39.7648 7.27617C39.3422 7.69878 39.007 8.20049 38.7783 8.75266C38.5495 9.30483 38.4318 9.89664 38.4318 10.4943C38.4318 11.092 38.5495 11.6838 38.7783 12.236C39.007 12.7881 39.3422 13.2898 39.7648 13.7124C40.1874 14.1351 40.6891 14.4703 41.2413 14.699C41.7935 14.9277 42.3853 15.0454 42.983 15.0454H57.142C58.343 15.0455 59.4952 14.5708 60.3477 13.725C61.2002 12.8791 61.6838 11.7306 61.6932 10.5297V10.4943Z" fill="#283841"/>
</svg>
