<svg width="86" height="43" viewBox="0 0 86 43" fill="none" xmlns="http://www.w3.org/2000/svg">
<circle cx="8.59379" cy="34.1406" r="8.3914" fill="#DD720D"/>
<path d="M8.00131 28.3989C8.10228 27.8543 8.88272 27.8543 8.98369 28.3989L9.32722 30.2521C9.39944 30.6417 9.87482 30.7962 10.1623 30.5234L11.5294 29.2261C11.9313 28.8448 12.5627 29.3035 12.3242 29.8035L11.5129 31.5047C11.3423 31.8623 11.6361 32.2667 12.029 32.215L13.8975 31.9691C14.4468 31.8968 14.6879 32.639 14.2011 32.9034L12.5448 33.8027C12.1966 33.9918 12.1966 34.4917 12.5448 34.6807L14.2011 35.5801C14.6879 35.8445 14.4468 36.5867 13.8975 36.5144L12.029 36.2685C11.6361 36.2168 11.3423 36.6211 11.5129 36.9788L12.3242 38.6799C12.5627 39.1799 11.9313 39.6387 11.5294 39.2574L10.1623 37.9601C9.87482 37.6873 9.39944 37.8418 9.32722 38.2314L8.98369 40.0845C8.88272 40.6292 8.10228 40.6292 8.00131 40.0845L7.65778 38.2314C7.58556 37.8418 7.11018 37.6873 6.82273 37.9601L5.45557 39.2574C5.05374 39.6387 4.42234 39.1799 4.66081 38.6799L5.47213 36.9788C5.64272 36.6211 5.34892 36.2168 4.95604 36.2685L3.08746 36.5144C2.53824 36.5867 2.29707 35.8445 2.78388 35.5801L4.44016 34.6807C4.78839 34.4917 4.78839 33.9918 4.44016 33.8027L2.78388 32.9034C2.29707 32.639 2.53824 31.8968 3.08746 31.9691L4.95604 32.215C5.34892 32.2667 5.64272 31.8623 5.47213 31.5047L4.66081 29.8035C4.42235 29.3035 5.05374 28.8448 5.45557 29.2261L6.82273 30.5234C7.11018 30.7962 7.58556 30.6417 7.65778 30.2521L8.00131 28.3989Z" fill="#D9D9D9"/>
<path d="M15.0826 15.6262L18.9552 16.9171C17.6304 19.7026 14.5391 21.8427 10.6665 21.8427C4.75575 21.8427 1.49463 17.3926 1.49463 13.0784C1.49463 8.86617 4.51796 4.34816 10.4627 4.34816C16.3735 4.34816 19.4648 8.69632 19.4648 12.9086C19.4648 13.2823 19.4308 13.6899 19.3968 14.0636H5.9447C6.21646 16.2377 8.15275 18.106 10.7005 18.106C12.5688 18.106 14.3013 17.1549 15.0826 15.6262ZM6.01264 11.2441H14.9807C14.5391 9.47763 13.2482 7.94898 10.4627 7.94898C8.01687 7.94898 6.45425 9.54557 6.01264 11.2441Z" fill="black"/>
<path d="M29.81 21.503H25.4278L17.9544 4.68786H22.8461L27.7038 15.9319L32.6634 4.68786H37.4532L29.81 21.503Z" fill="black"/>
<path d="M49.042 15.6262L52.9146 16.9171C51.5898 19.7026 48.4985 21.8427 44.6259 21.8427C38.7151 21.8427 35.454 17.3926 35.454 13.0784C35.454 8.86617 38.4773 4.34816 44.4221 4.34816C50.3329 4.34816 53.4241 8.69632 53.4241 12.9086C53.4241 13.2823 53.3902 13.6899 53.3562 14.0636H39.9041C40.1758 16.2377 42.1121 18.106 44.6599 18.106C46.5282 18.106 48.2607 17.1549 49.042 15.6262ZM39.972 11.2441H48.9401C48.4985 9.47763 47.2076 7.94898 44.4221 7.94898C41.9763 7.94898 40.4136 9.54557 39.972 11.2441Z" fill="black"/>
<path d="M59.1415 21.503H54.4876V4.68786H59.1075V6.89591C60.6701 4.72183 63.2178 4.34816 64.1011 4.34816C70.5214 4.34816 71.3027 8.79823 71.3027 12.3991V21.503H66.6488V12.3651C66.6488 9.91924 65.6637 8.42456 63.2518 8.42456C60.3644 8.42456 59.1415 10.4967 59.1415 12.6029V21.503Z" fill="black"/>
<path d="M71.2141 4.72183H74.4072V0H79.0272V4.72183H83.0696V8.32265H79.0272V16.3735C79.0272 17.3247 79.5367 17.6304 80.4539 17.6304C81.0993 17.6304 81.9486 17.4606 82.9677 17.2907V21.0954C81.7108 21.503 80.2501 21.7408 78.9932 21.7408C78.3817 21.7408 77.8043 21.6729 77.3287 21.537C75.5283 21.1973 74.3733 19.8385 74.3733 17.0869V8.32265H71.2141V4.72183Z" fill="black"/>
<path d="M54.8893 42.6566H50.4053V40.6184C48.8766 42.3849 46.8724 42.9284 45.072 42.9284C40.7578 42.9284 38.2101 40.7543 38.2101 35.1832V25.8415H42.83V34.6737C42.83 37.6291 43.7472 39.0558 46.227 39.0558C48.9785 39.0558 50.2694 37.4932 50.2694 34.5038V25.8415H54.8893V42.6566Z" fill="black"/>
<path d="M62.0719 42.6566H57.418V25.8415H62.0379V28.0495C63.6005 25.8754 66.1483 25.5018 67.0315 25.5018C73.4518 25.5018 74.2331 29.9518 74.2331 33.5527V42.6566H69.5792V33.5187C69.5792 31.0728 68.5941 29.5782 66.1822 29.5782C63.2948 29.5782 62.0719 31.6503 62.0719 33.7565V42.6566Z" fill="black"/>
<path d="M74.1445 25.8754H77.3377V22.3668C79.1932 22.8468 80.2122 22.8394 81.9576 22.3668V25.8754H86V29.4763H81.9576V37.5271C81.9576 38.4783 82.4671 38.784 83.3843 38.784C84.0298 38.784 84.879 38.6142 85.8981 38.4443V42.249C84.6412 42.6566 83.1805 42.8944 81.9236 42.8944C81.3122 42.8944 80.7347 42.8265 80.2591 42.6906C78.4587 42.3509 77.3037 40.9921 77.3037 38.2405V29.4763H74.1445V25.8754Z" fill="black"/>
<path fill-rule="evenodd" clip-rule="evenodd" d="M22.9299 18.47H19.4114V42.6566H24.0653V33.7565C24.0653 31.6503 25.2882 29.5782 28.1756 29.5782C30.5875 29.5782 31.5726 31.0728 31.5726 33.5187V42.6566H36.2265V33.5527C36.2265 29.9518 35.4452 25.5018 29.0249 25.5018C28.1756 25.5018 25.6619 25.8754 24.0653 27.9816V20.993L22.9299 18.47Z" fill="black"/>
</svg>
