<svg width="20" height="20" viewBox="0 0 20 20" fill="none" xmlns="http://www.w3.org/2000/svg">
<path fill-rule="evenodd" clip-rule="evenodd" d="M2.70898 8.45307C2.70898 4.37055 5.96316 1.04199 10.0007 1.04199C14.0381 1.04199 17.2923 4.37055 17.2923 8.45307C17.2923 10.424 16.7306 12.5402 15.7377 14.3685C14.746 16.1946 13.297 17.7813 11.4844 18.6286C10.5428 19.0687 9.45851 19.0687 8.51689 18.6286C6.70429 17.7813 5.25533 16.1946 4.26361 14.3685C3.27067 12.5402 2.70898 10.424 2.70898 8.45307ZM10.0007 2.29199C6.67435 2.29199 3.95898 5.03989 3.95898 8.45307C3.95898 10.2006 4.46118 12.1132 5.36207 13.772C6.26418 15.433 7.539 16.7917 9.04619 17.4962C9.65236 17.7795 10.3489 17.7795 10.9551 17.4962C12.4623 16.7917 13.7371 15.433 14.6392 13.772C15.5401 12.1132 16.0423 10.2006 16.0423 8.45307C16.0423 5.03989 13.327 2.29199 10.0007 2.29199ZM10.0007 6.45866C8.96512 6.45866 8.12565 7.29812 8.12565 8.33366C8.12565 9.36919 8.96512 10.2087 10.0007 10.2087C11.0362 10.2087 11.8757 9.36919 11.8757 8.33366C11.8757 7.29812 11.0362 6.45866 10.0007 6.45866ZM6.87565 8.33366C6.87565 6.60777 8.27476 5.20866 10.0007 5.20866C11.7265 5.20866 13.1257 6.60777 13.1257 8.33366C13.1257 10.0595 11.7265 11.4587 10.0007 11.4587C8.27476 11.4587 6.87565 10.0595 6.87565 8.33366Z" fill="#1C274C"/>
</svg>
