<svg width="25" height="25" viewBox="0 0 25 25" fill="none" xmlns="http://www.w3.org/2000/svg">
<path d="M14.505 4.49826H10.495C6.71439 4.49826 4.82407 4.49826 3.64958 5.66983C2.84091 6.47649 2.58903 7.62165 2.51058 9.48773C2.49502 9.8578 2.48724 10.0428 2.55634 10.1663C2.62545 10.2897 2.90133 10.4438 3.45308 10.7519C4.06586 11.0941 4.48007 11.7479 4.48007 12.4983C4.48007 13.2486 4.06586 13.9024 3.45308 14.2446C2.90133 14.5527 2.62545 14.7068 2.55634 14.8302C2.48724 14.9537 2.49502 15.1387 2.51058 15.5088C2.58903 17.3749 2.84091 18.52 3.64958 19.3267C4.82407 20.4983 6.71439 20.4983 10.495 20.4983H14.505C18.2856 20.4983 20.1759 20.4983 21.3504 19.3267C22.1591 18.52 22.411 17.3749 22.4894 15.5088C22.505 15.1387 22.5128 14.9537 22.4437 14.8302C22.3746 14.7068 22.0987 14.5527 21.5469 14.2446C20.9341 13.9024 20.5199 13.2486 20.5199 12.4983C20.5199 11.7479 20.9341 11.0941 21.5469 10.7519C22.0987 10.4438 22.3746 10.2897 22.4437 10.1663C22.5128 10.0428 22.505 9.8578 22.4894 9.48773C22.411 7.62165 22.1591 6.47649 21.3504 5.66983C20.1759 4.49826 18.2856 4.49826 14.505 4.49826Z" stroke="#1C274C" stroke-width="1.5"/>
<path d="M9.5 15.4983L15.5 9.49826" stroke="#1C274C" stroke-width="1.5" stroke-linecap="round"/>
<path d="M16 14.9983C16 15.5505 15.5523 15.9983 15 15.9983C14.4477 15.9983 14 15.5505 14 14.9983C14 14.446 14.4477 13.9983 15 13.9983C15.5523 13.9983 16 14.446 16 14.9983Z" fill="#1C274C"/>
<path d="M11 9.99826C11 10.5505 10.5523 10.9983 10 10.9983C9.44772 10.9983 9 10.5505 9 9.99826C9 9.44598 9.44772 8.99826 10 8.99826C10.5523 8.99826 11 9.44598 11 9.99826Z" fill="#1C274C"/>
</svg>
