<svg width="141" height="141" viewBox="0 0 141 141" fill="none" xmlns="http://www.w3.org/2000/svg">
<path d="M98.2842 76.9075V98.2696H119.64V119.625H141.002V141H119.64V119.638H98.2842V141H76.9093V119.638H98.2714V98.276H76.9093V76.9075H98.2842ZM48.0676 76.9075C52.3172 76.9075 56.3927 78.5957 59.3977 81.6006C62.4026 84.6055 64.0907 88.6811 64.0907 92.9307V124.977C64.0907 129.227 62.4026 133.302 59.3977 136.307C56.3927 139.312 52.3172 141 48.0676 141H16.0212C11.7716 141 7.69605 139.312 4.69112 136.307C1.6862 133.302 -0.00195312 129.227 -0.00195312 124.977V92.9307C-0.00195312 88.6811 1.6862 84.6055 4.69112 81.6006C7.69605 78.5957 11.7716 76.9075 16.0212 76.9075H48.0676ZM48.0676 89.7261H16.0212C15.1713 89.7261 14.3562 90.0637 13.7552 90.6647C13.1542 91.2657 12.8166 92.0808 12.8166 92.9307V124.977C12.8166 125.827 13.1542 126.642 13.7552 127.243C14.3562 127.844 15.1713 128.182 16.0212 128.182H48.0676C48.9175 128.182 49.7326 127.844 50.3336 127.243C50.9346 126.642 51.2722 125.827 51.2722 124.977V92.9307C51.2722 92.0808 50.9346 91.2657 50.3336 90.6647C49.7326 90.0637 48.9175 89.7261 48.0676 89.7261ZM43.2606 97.7376V120.17H20.8282V97.7376H43.2606ZM141.002 76.9075V98.2696H119.64V76.9075H141.002ZM48.0676 -0.00369263C52.3172 -0.00369263 56.3927 1.68446 59.3977 4.68939C62.4026 7.69431 64.0907 11.7699 64.0907 16.0195V48.0658C64.0907 52.3154 62.4026 56.391 59.3977 59.3959C56.3927 62.4008 52.3172 64.089 48.0676 64.089H16.0212C11.7716 64.089 7.69605 62.4008 4.69112 59.3959C1.6862 56.391 -0.00195312 52.3154 -0.00195312 48.0658V16.0195C-0.00195312 11.7699 1.6862 7.69431 4.69112 4.68939C7.69605 1.68446 11.7716 -0.00369263 16.0212 -0.00369263H48.0676ZM124.979 -0.00369263C129.228 -0.00369263 133.304 1.68446 136.309 4.68939C139.314 7.69431 141.002 11.7699 141.002 16.0195V48.0658C141.002 52.3154 139.314 56.391 136.309 59.3959C133.304 62.4008 129.228 64.089 124.979 64.089H92.9324C88.6828 64.089 84.6073 62.4008 81.6023 59.3959C78.5974 56.391 76.9093 52.3154 76.9093 48.0658V16.0195C76.9093 11.7699 78.5974 7.69431 81.6023 4.68939C84.6073 1.68446 88.6828 -0.00369263 92.9324 -0.00369263H124.979ZM48.0676 12.8148H16.0212C15.1713 12.8148 14.3562 13.1525 13.7552 13.7535C13.1542 14.3544 12.8166 15.1696 12.8166 16.0195V48.0658C12.8166 48.9157 13.1542 49.7309 13.7552 50.3318C14.3562 50.9328 15.1713 51.2705 16.0212 51.2705H48.0676C48.9175 51.2705 49.7326 50.9328 50.3336 50.3318C50.9346 49.7309 51.2722 48.9157 51.2722 48.0658V16.0195C51.2722 15.1696 50.9346 14.3544 50.3336 13.7535C49.7326 13.1525 48.9175 12.8148 48.0676 12.8148ZM124.979 12.8148H92.9324C92.0825 12.8148 91.2674 13.1525 90.6664 13.7535C90.0654 14.3544 89.7278 15.1696 89.7278 16.0195V48.0658C89.7278 48.9157 90.0654 49.7309 90.6664 50.3318C91.2674 50.9328 92.0825 51.2705 92.9324 51.2705H124.979C125.829 51.2705 126.644 50.9328 127.245 50.3318C127.846 49.7309 128.183 48.9157 128.183 48.0658V16.0195C128.183 15.1696 127.846 14.3544 127.245 13.7535C126.644 13.1525 125.829 12.8148 124.979 12.8148ZM120.172 20.8264V43.2589H97.7394V20.8264H120.172ZM43.2414 20.8392V43.2396H20.8474V20.8392H43.2414Z" fill="black"/>
</svg>
