<svg width="52" height="52" viewBox="0 0 52 52" fill="none" xmlns="http://www.w3.org/2000/svg">
<g clip-path="url(#clip0_21_186)">
<rect x="0.25" width="51.5" height="51.4983" rx="25.7491" fill="url(#paint0_linear_21_186)"/>
<g filter="url(#filter0_d_21_186)">
<path fill-rule="evenodd" clip-rule="evenodd" d="M14.0581 20.6923C14.8775 20.5418 15.8942 20.4754 17.2135 20.4472C17.4496 22.5061 19.1982 24.105 21.3203 24.105H30.5066C32.6287 24.105 34.3773 22.5061 34.6134 20.4472C35.9327 20.4754 36.9494 20.5418 37.7688 20.6923C38.8102 20.8836 39.4129 21.1908 39.8602 21.6381C40.3687 22.1466 40.7002 22.8605 40.8815 24.2086C41.0681 25.5964 41.071 27.4357 41.071 30.073V41.0966C41.071 43.7339 41.0681 45.5732 40.8815 46.961C40.7002 48.3092 40.3687 49.0231 39.8602 49.5316C39.3517 50.0401 38.6378 50.3716 37.2896 50.5528C35.9019 50.7394 34.0625 50.7423 31.4253 50.7423H20.4016C17.7644 50.7423 15.925 50.7394 14.5373 50.5528C13.1891 50.3716 12.4752 50.0401 11.9667 49.5316C11.4582 49.0231 11.1267 48.3092 10.9454 46.961C10.7588 45.5732 10.7559 43.7339 10.7559 41.0966V30.073C10.7559 27.4357 10.7588 25.5964 10.9454 24.2086C11.1267 22.8605 11.4582 22.1466 11.9667 21.6381C12.414 21.1908 13.0168 20.8836 14.0581 20.6923ZM32.4326 30.9732C32.9519 31.5296 32.9218 32.4016 32.3655 32.9208L24.4914 40.2699C23.962 40.764 23.1405 40.764 22.611 40.2699L19.4614 37.3303C18.9051 36.811 18.875 35.9391 19.3943 35.3827C19.9135 34.8264 20.7855 34.7963 21.3418 35.3156L23.5512 37.3777L30.4851 30.9061C31.0414 30.3868 31.9134 30.4169 32.4326 30.9732Z" fill="white"/>
<path fill-rule="evenodd" clip-rule="evenodd" d="M21.3203 14C19.1869 14 17.4311 15.6159 17.2099 17.6906C15.8077 17.7191 14.5954 17.7916 13.5602 17.9818C12.1676 18.2376 10.9824 18.7249 10.018 19.6893C8.91209 20.7952 8.43643 22.1876 8.21409 23.8414C7.99993 25.4343 7.99996 27.4595 8 29.9722V41.1975C7.99996 43.7101 7.99993 45.7354 8.21409 47.3282C8.43643 48.982 8.91209 50.3744 10.018 51.4803C11.1239 52.5862 12.5163 53.0618 14.17 53.2842C15.7629 53.4983 17.7882 53.4983 20.3008 53.4983H31.5261C34.0387 53.4983 36.064 53.4983 37.6569 53.2842C39.3106 53.0618 40.703 52.5862 41.8089 51.4803C42.9148 50.3744 43.3905 48.982 43.6128 47.3282C43.827 45.7354 43.8269 43.7101 43.8269 41.1975V29.9722C43.8269 27.4595 43.827 25.4343 43.6128 23.8414C43.3905 22.1876 42.9148 20.7952 41.8089 19.6893C40.8445 18.7249 39.6593 18.2376 38.2667 17.9818C37.2315 17.7916 36.0192 17.7191 34.617 17.6906C34.3958 15.6159 32.64 14 30.5066 14H21.3203ZM14.0581 20.6923C14.8775 20.5418 15.8942 20.4754 17.2135 20.4472C17.4496 22.5061 19.1982 24.105 21.3203 24.105H30.5066C32.6287 24.105 34.3773 22.5061 34.6134 20.4472C35.9327 20.4754 36.9494 20.5418 37.7688 20.6923C38.8102 20.8836 39.4129 21.1908 39.8602 21.6381C40.3687 22.1466 40.7002 22.8605 40.8815 24.2086C41.0681 25.5964 41.071 27.4357 41.071 30.073V41.0966C41.071 43.7339 41.0681 45.5732 40.8815 46.961C40.7002 48.3092 40.3687 49.0231 39.8602 49.5316C39.3517 50.0401 38.6378 50.3716 37.2896 50.5528C35.9019 50.7394 34.0625 50.7423 31.4253 50.7423H20.4016C17.7644 50.7423 15.925 50.7394 14.5373 50.5528C13.1891 50.3716 12.4752 50.0401 11.9667 49.5316C11.4582 49.0231 11.1267 48.3092 10.9454 46.961C10.7588 45.5732 10.7559 43.7339 10.7559 41.0966V30.073C10.7559 27.4357 10.7588 25.5964 10.9454 24.2086C11.1267 22.8605 11.4582 22.1466 11.9667 21.6381C12.414 21.1908 13.0168 20.8836 14.0581 20.6923ZM19.9423 18.1339C19.9423 17.3728 20.5592 16.7559 21.3203 16.7559H30.5066C31.2677 16.7559 31.8846 17.3728 31.8846 18.1339V19.9711C31.8846 20.7322 31.2677 21.3491 30.5066 21.3491H21.3203C20.5592 21.3491 19.9423 20.7322 19.9423 19.9711V18.1339Z" fill="white"/>
</g>
</g>
<defs>
<filter id="filter0_d_21_186" x="-6" y="4" width="63.8269" height="67.4983" filterUnits="userSpaceOnUse" color-interpolation-filters="sRGB">
<feFlood flood-opacity="0" result="BackgroundImageFix"/>
<feColorMatrix in="SourceAlpha" type="matrix" values="0 0 0 0 0 0 0 0 0 0 0 0 0 0 0 0 0 0 127 0" result="hardAlpha"/>
<feOffset dy="4"/>
<feGaussianBlur stdDeviation="7"/>
<feComposite in2="hardAlpha" operator="out"/>
<feColorMatrix type="matrix" values="0 0 0 0 0 0 0 0 0 0 0 0 0 0 0 0 0 0 0.25 0"/>
<feBlend mode="normal" in2="BackgroundImageFix" result="effect1_dropShadow_21_186"/>
<feBlend mode="normal" in="SourceGraphic" in2="effect1_dropShadow_21_186" result="shape"/>
</filter>
<linearGradient id="paint0_linear_21_186" x1="26" y1="0" x2="26" y2="51.4983" gradientUnits="userSpaceOnUse">
<stop stop-color="#80E292"/>
<stop offset="1" stop-color="#4D9A65"/>
</linearGradient>
<clipPath id="clip0_21_186">
<rect x="0.25" width="51.5" height="51.4983" rx="25.7491" fill="white"/>
</clipPath>
</defs>
</svg>
