<svg width="25" height="25" viewBox="0 0 25 25" fill="none" xmlns="http://www.w3.org/2000/svg">
<path d="M16.2587 7.37099C15.9543 7.09003 15.4799 7.10901 15.1989 7.41338C14.9179 7.71774 14.9369 8.19224 15.2413 8.47319L16.0818 9.24901H10.4615C8.13558 9.24901 6.25 11.1346 6.25 13.4605C6.25 15.7865 8.13557 17.6721 10.4615 17.6721H15C15.4142 17.6721 15.75 17.3363 15.75 16.9221C15.75 16.5079 15.4142 16.1721 15 16.1721H10.4615C8.964 16.1721 7.75 14.9581 7.75 13.4606C7.75 11.963 8.964 10.749 10.4615 10.749H16.0818L15.2413 11.5248C14.9369 11.8058 14.9179 12.2803 15.1989 12.5846C15.4799 12.889 15.9543 12.908 16.2587 12.627L18.5087 10.5501C18.6625 10.4081 18.75 10.2083 18.75 9.99901C18.75 9.78969 18.6625 9.58989 18.5087 9.44791L16.2587 7.37099Z" fill="#1C274C"/>
<path fill-rule="evenodd" clip-rule="evenodd" d="M12.4426 1.74826C10.1342 1.74825 8.32519 1.74824 6.9137 1.93801C5.46897 2.13225 4.32895 2.53759 3.43414 3.4324C2.53933 4.32721 2.13399 5.46723 1.93975 6.91197C1.74998 8.32345 1.74999 10.1325 1.75 12.4409V12.5556C1.74999 14.864 1.74998 16.6731 1.93975 18.0846C2.13399 19.5293 2.53933 20.6693 3.43414 21.5641C4.32895 22.4589 5.46897 22.8643 6.9137 23.0585C8.32519 23.2483 10.1342 23.2483 12.4426 23.2483H12.5574C14.8658 23.2483 16.6748 23.2483 18.0863 23.0585C19.531 22.8643 20.6711 22.4589 21.5659 21.5641C22.4607 20.6693 22.866 19.5293 23.0603 18.0846C23.25 16.6731 23.25 14.864 23.25 12.5556V12.4409C23.25 10.1325 23.25 8.32345 23.0603 6.91197C22.866 5.46723 22.4607 4.32721 21.5659 3.4324C20.6711 2.53759 19.531 2.13225 18.0863 1.93801C16.6748 1.74824 14.8658 1.74825 12.5574 1.74826H12.4426ZM4.4948 4.49306C5.06445 3.9234 5.83517 3.59651 7.11358 3.42463C8.41356 3.24985 10.1218 3.24826 12.5 3.24826C14.8782 3.24826 16.5864 3.24985 17.8864 3.42463C19.1648 3.59651 19.9355 3.9234 20.5052 4.49306C21.0749 5.06271 21.4018 5.83343 21.5736 7.11184C21.7484 8.41182 21.75 10.12 21.75 12.4983C21.75 14.8765 21.7484 16.5847 21.5736 17.8847C21.4018 19.1631 21.0749 19.9338 20.5052 20.5035C19.9355 21.0731 19.1648 21.4 17.8864 21.5719C16.5864 21.7467 14.8782 21.7483 12.5 21.7483C10.1218 21.7483 8.41356 21.7467 7.11358 21.5719C5.83517 21.4 5.06445 21.0731 4.4948 20.5035C3.92514 19.9338 3.59825 19.1631 3.42637 17.8847C3.25159 16.5847 3.25 14.8765 3.25 12.4983C3.25 10.12 3.25159 8.41182 3.42637 7.11184C3.59825 5.83343 3.92514 5.06271 4.4948 4.49306Z" fill="#1C274C"/>
</svg>
